{
  "accessors": [
    {
      "bufferView": 2,
      "componentType": 5126,
      "count": 3492,
      "max": [
        15.761093139648438,
        2.673004150390625,
        4.101654052734375
      ],
      "min": [
        -3.349252700805664,
        -12.554327964782715,
        -4.101654052734375
      ],
      "type": "VEC3"
    },
    {
      "bufferView": 2,
      "byteOffset": 41904,
      "componentType": 5126,
      "count": 3492,
      "max": [
        0.9725413918495178,
        0.9983844757080078,
        0.9993728399276733
      ],
      "min": [
        -0.9957427978515625,
        -0.9988638162612915,
        -0.9993728399276733
      ],
      "type": "VEC3"
    },
    {
      "bufferView": 1,
      "componentType": 5126,
      "count": 3492,
      "max": [
        1.0,
        1.0
      ],
      "min": [
        0.0,
        0.0
      ],
      "type": "VEC2"
    },
    {
      "bufferView": 0,
      "componentType": 5125,
      "count": 5136,
      "type": "SCALAR"
    },
    {
      "bufferView": 2,
      "byteOffset": 83808,
      "componentType": 5126,
      "count": 566,
      "max": [
        19.049055099487305,
        2.673004150390625,
        4.101654052734375
      ],
      "min": [
        -3.292412519454956,
        -8.972000122070313,
        -4.101654052734375
      ],
      "type": "VEC3"
    },
    {
      "bufferView": 2,
      "byteOffset": 90600,
      "componentType": 5126,
      "count": 566,
      "max": [
        0.973983645439148,
        0.9195987582206726,
        0.9201348423957825
      ],
      "min": [
        -0.9998423457145691,
        -0.9969010353088379,
        -0.9201348423957825
      ],
      "type": "VEC3"
    },
    {
      "bufferView": 1,
      "byteOffset": 27936,
      "componentType": 5126,
      "count": 566,
      "max": [
        1.0,
        1.0
      ],
      "min": [
        0.0,
        0.0
      ],
      "type": "VEC2"
    },
    {
      "bufferView": 0,
      "byteOffset": 20544,
      "componentType": 5125,
      "count": 810,
      "type": "SCALAR"
    },
    {
      "bufferView": 2,
      "byteOffset": 97392,
      "componentType": 5126,
      "count": 60,
      "max": [
        -3.0450525283813477,
        -3.1404781341552734,
        0.6623833775520325
      ],
      "min": [
        -3.6000962257385254,
        -4.071840763092041,
        -0.6623833775520325
      ],
      "type": "VEC3"
    },
    {
      "bufferView": 2,
      "byteOffset": 98112,
      "componentType": 5126,
      "count": 60,
      "max": [
        -0.32206594944000244,
        0.8577131032943726,
        0.9214063286781311
      ],
      "min": [
        -0.96354740858078,
        -0.7217378616333008,
        -0.9214063286781311
      ],
      "type": "VEC3"
    },
    {
      "bufferView": 1,
      "byteOffset": 32464,
      "componentType": 5126,
      "count": 60,
      "max": [
        0.0,
        1.0
      ],
      "min": [
        0.0,
        0.0
      ],
      "type": "VEC2"
    },
    {
      "bufferView": 0,
      "byteOffset": 23784,
      "componentType": 5125,
      "count": 84,
      "type": "SCALAR"
    }
  ],
  "asset": {
    "extras": {
      "author": "Pandaaaaaaaa (https://sketchfab.com/Pandaaaaaaaa)",
      "license": "CC-BY-4.0 (http://creativecommons.org/licenses/by/4.0/)",
      "source": "https://sketchfab.com/3d-models/low-poly-fox-d99158951c634f6cb52eab920ffb55eb",
      "title": "Low poly fox"
    },
    "generator": "Sketchfab-12.65.0",
    "version": "2.0"
  },
  "bufferViews": [
    {
      "buffer": 0,
      "byteLength": 24120,
      "name": "floatBufferViews",
      "target": 34963
    },
    {
      "buffer": 0,
      "byteLength": 32944,
      "byteOffset": 24120,
      "byteStride": 8,
      "name": "floatBufferViews",
      "target": 34962
    },
    {
      "buffer": 0,
      "byteLength": 98832,
      "byteOffset": 57064,
      "byteStride": 12,
      "name": "floatBufferViews",
      "target": 34962
    }
  ],
  "buffers": [
    {
      "byteLength": 155896,
      "uri": "scene.bin"
    }
  ],
  "materials": [
    {
      "doubleSided": true,
      "name": "Material",
      "pbrMetallicRoughness": {
        "baseColorFactor": [
          1.0,
          0.121553,
          0.00801442,
          1.0
        ],
        "metallicFactor": 0.0,
        "roughnessFactor": 0.509174
      }
    },
    {
      "doubleSided": true,
      "name": "Material.001",
      "pbrMetallicRoughness": {
        "baseColorFactor": [
          0.905415,
          0.905415,
          0.905415,
          1.0
        ],
        "metallicFactor": 0.0,
        "roughnessFactor": 0.5
      }
    },
    {
      "doubleSided": true,
      "name": "Material.002",
      "pbrMetallicRoughness": {
        "baseColorFactor": [
          0.0183414,
          0.0183414,
          0.0183414,
          1.0
        ],
        "metallicFactor": 0.0,
        "roughnessFactor": 0.53211
      }
    }
  ],
  "meshes": [
    {
      "name": "Object_0",
      "primitives": [
        {
          "attributes": {
            "NORMAL": 1,
            "POSITION": 0,
            "TEXCOORD_0": 2
          },
          "indices": 3,
          "material": 0,
          "mode": 4
        }
      ]
    },
    {
      "name": "Object_1",
      "primitives": [
        {
          "attributes": {
            "NORMAL": 5,
            "POSITION": 4,
            "TEXCOORD_0": 6
          },
          "indices": 7,
          "material": 1,
          "mode": 4
        }
      ]
    },
    {
      "name": "Object_2",
      "primitives": [
        {
          "attributes": {
            "NORMAL": 9,
            "POSITION": 8,
            "TEXCOORD_0": 10
          },
          "indices": 11,
          "material": 2,
          "mode": 4
        }
      ]
    }
  ],
  "nodes": [
    {
      "children": [
        1
      ],
      "matrix": [
        1.0,
        0.0,
        0.0,
        0.0,
        0.0,
        2.220446049250313e-16,
        -1.0,
        0.0,
        0.0,
        1.0,
        2.220446049250313e-16,
        0.0,
        0.0,
        0.0,
        0.0,
        1.0
      ],
      "name": "Sketchfab_model"
    },
    {
      "children": [
        2
      ],
      "name": "root"
    },
    {
      "children": [
        3
      ],
      "matrix": [
        1.0,
        0.0,
        0.0,
        0.0,
        0.0,
        2.220446049250313e-16,
        1.0,
        0.0,
        0.0,
        -1.0,
        2.220446049250313e-16,
        0.0,
        0.0,
        0.0,
        0.0,
        1.0
      ],
      "name": "GLTF_SceneRootNode"
    },
    {
      "children": [
        4,
        5,
        6
      ],
      "matrix": [
        0.04743218421936035,
        0.0,
        0.0,
        0.0,
        0.0,
        0.04743218421936035,
        0.0,
        0.0,
        0.0,
        0.0,
        0.04743218421936035,
        0.0,
        1.9311015605926514,
        5.026893138885498,
        1.5397577285766602,
        1.0
      ],
      "name": "Plane_2"
    },
    {
      "mesh": 0,
      "name": "Object_4"
    },
    {
      "mesh": 1,
      "name": "Object_5"
    },
    {
      "mesh": 2,
      "name": "Object_6"
    }
  ],
  "scene": 0,
  "scenes": [
    {
      "name": "Sketchfab_Scene",
      "nodes": [
        0
      ]
    }
  ]
}
